<?xml version="1.0" encoding="UTF-8" standalone="no"?><!DOCTYPE svg PUBLIC "-//W3C//DTD SVG 1.1//EN" "http://www.w3.org/Graphics/SVG/1.1/DTD/svg11.dtd"><svg width="100%" height="100%" viewBox="0 0 203 204" version="1.1" xmlns="http://www.w3.org/2000/svg" xmlns:xlink="http://www.w3.org/1999/xlink" xml:space="preserve" xmlns:serif="http://www.serif.com/" style="fill-rule:evenodd;clip-rule:evenodd;"><rect id="apple" x="0.31" y="0.941" width="202.631" height="202.631" style="fill:#a2b1b8;"/><g><path d="M138.909,86.466l0.03,0.02l0,0.199l-0.03,0.02l-0.02,0.03l-1.771,1.323c-1.174,0.876 -2.209,1.778 -3.105,2.706c-0.895,0.929 -1.691,1.941 -2.388,3.035c-0.696,1.095 -1.26,2.189 -1.691,3.284c-0.431,1.094 -0.763,2.205 -0.995,3.333c-0.232,1.128 -0.348,2.686 -0.348,4.676c0,1.99 0.132,3.616 0.398,4.876c0.265,1.26 0.646,2.487 1.144,3.681c0.497,1.195 1.094,2.322 1.791,3.384c0.696,1.061 1.426,1.99 2.189,2.786c0.763,0.796 1.552,1.532 2.368,2.208c0.809,0.684 1.745,1.34 2.806,1.971c1.061,0.63 1.642,0.961 1.741,0.995l0.15,0.049l0.199,0.1l0.099,0.03l0.1,0.02l0,0.199l-1.314,3.283c-0.882,2.189 -1.798,4.153 -2.746,5.891c-0.942,1.744 -2.043,3.529 -3.304,5.353c-1.26,1.824 -2.394,3.343 -3.402,4.557c-1.015,1.207 -1.944,2.202 -2.786,2.985c-0.85,0.776 -1.722,1.429 -2.617,1.96c-0.896,0.531 -1.791,0.929 -2.687,1.194c-0.895,0.265 -1.476,0.415 -1.741,0.448l-0.398,0.05l-0.1,0.029l-0.099,0.02l-0.796,-0.02c-0.531,-0.02 -1.327,-0.129 -2.388,-0.328c-1.061,-0.199 -2.67,-0.68 -4.826,-1.443c-2.156,-0.763 -3.847,-1.277 -5.074,-1.542c-1.228,-0.265 -2.488,-0.398 -3.781,-0.398c-1.294,0 -2.455,0.1 -3.483,0.299c-1.028,0.199 -2.521,0.646 -4.478,1.343c-1.956,0.696 -3.548,1.21 -4.776,1.542l-1.84,0.498l-0.398,0.049l-0.398,0.05l0,0.05l-1.99,0l0,-0.05l-0.349,-0.05l-0.348,-0.049l-0.199,-0.05c-0.133,-0.033 -0.365,-0.1 -0.696,-0.199c-0.332,-0.1 -0.912,-0.348 -1.742,-0.746c-0.829,-0.398 -1.724,-0.979 -2.686,-1.742c-0.962,-0.763 -1.858,-1.592 -2.687,-2.487c-0.829,-0.896 -1.933,-2.262 -3.313,-4.1c-1.373,-1.844 -2.547,-3.555 -3.522,-5.134c-0.982,-1.572 -1.931,-3.31 -2.846,-5.214c-0.909,-1.91 -1.745,-3.927 -2.508,-6.049c-0.762,-2.123 -1.409,-4.279 -1.94,-6.468c-0.53,-2.189 -0.938,-4.444 -1.224,-6.766l-0.418,-3.483l0,-4.477l0.05,0l0.299,-2.587c0.199,-1.725 0.497,-3.35 0.895,-4.876c0.398,-1.525 0.879,-2.935 1.443,-4.228c0.564,-1.294 1.211,-2.538 1.94,-3.732c0.73,-1.194 1.47,-2.229 2.219,-3.104c0.743,-0.882 1.529,-1.705 2.358,-2.468c0.829,-0.763 1.874,-1.542 3.135,-2.338c1.26,-0.796 2.537,-1.459 3.83,-1.99c1.294,-0.531 2.587,-0.929 3.881,-1.194c1.293,-0.265 2.703,-0.398 4.229,-0.398c1.525,0 3.084,0.199 4.676,0.597c1.592,0.398 3.599,1.028 6.02,1.89c2.421,0.863 3.847,1.344 4.278,1.443c0.432,0.1 0.946,0.133 1.543,0.1c0.597,-0.033 2.603,-0.63 6.02,-1.791c3.416,-1.161 5.787,-1.874 7.114,-2.14c1.327,-0.265 2.736,-0.398 4.229,-0.398c1.492,0 3.068,0.166 4.726,0.498c1.658,0.332 3.084,0.73 4.278,1.194c1.194,0.464 2.316,1.005 3.364,1.622c1.041,0.61 2.009,1.297 2.905,2.06c0.896,0.762 1.708,1.575 2.438,2.437c0.729,0.863 1.137,1.353 1.224,1.473c0.079,0.113 0.126,0.179 0.139,0.199Z" style="fill:#f6f7f0;stroke:#221e20;stroke-width:0.05px;"/><path d="M120.481,53.272l0,-0.019l0.697,0l0.02,0.547c0.02,0.365 -0.004,1.194 -0.07,2.487c-0.066,1.294 -0.232,2.488 -0.497,3.582c-0.266,1.095 -0.631,2.189 -1.095,3.284c-0.464,1.094 -1.061,2.222 -1.791,3.383c-0.73,1.161 -1.502,2.199 -2.318,3.114c-0.81,0.909 -1.705,1.751 -2.687,2.528c-0.975,0.782 -1.95,1.432 -2.925,1.95c-0.982,0.511 -2.07,0.915 -3.264,1.214c-1.194,0.298 -2.338,0.457 -3.433,0.477l-1.641,0.02l0.079,-2.288c0.047,-1.526 0.219,-2.886 0.518,-4.08c0.298,-1.194 0.703,-2.328 1.214,-3.403c0.517,-1.081 1.107,-2.103 1.771,-3.064c0.663,-0.962 1.376,-1.874 2.139,-2.737c0.763,-0.862 1.625,-1.658 2.587,-2.388c0.962,-0.729 1.99,-1.393 3.085,-1.99c1.094,-0.597 2.255,-1.111 3.482,-1.542c1.227,-0.431 2.222,-0.713 2.985,-0.846c0.763,-0.132 1.144,-0.209 1.144,-0.229Z" style="fill:#fff;stroke:#221e20;stroke-width:0.05px;"/></g></svg>