<?xml version="1.0" encoding="UTF-8" standalone="no"?><!DOCTYPE svg PUBLIC "-//W3C//DTD SVG 1.1//EN" "http://www.w3.org/Graphics/SVG/1.1/DTD/svg11.dtd"><svg width="100%" height="100%" viewBox="0 0 203 203" version="1.1" xmlns="http://www.w3.org/2000/svg" xmlns:xlink="http://www.w3.org/1999/xlink" xml:space="preserve" xmlns:serif="http://www.serif.com/" style="fill-rule:evenodd;clip-rule:evenodd;"><rect id="apple" x="0" y="0" width="202.631" height="202.631" style="fill:#a2b1b8;"/><g><path d="M138.598,85.525l0.03,0.02l0,0.199l-0.03,0.02l-0.019,0.029l-1.772,1.324c-1.174,0.875 -2.208,1.777 -3.104,2.706c-0.895,0.929 -1.691,1.94 -2.388,3.035c-0.697,1.094 -1.26,2.189 -1.692,3.283c-0.431,1.095 -0.762,2.206 -0.995,3.334c-0.232,1.127 -0.348,2.686 -0.348,4.676c0,1.99 0.133,3.615 0.398,4.876c0.266,1.26 0.647,2.487 1.144,3.681c0.498,1.194 1.095,2.322 1.791,3.383c0.697,1.062 1.427,1.99 2.19,2.786c0.762,0.796 1.552,1.533 2.368,2.209c0.809,0.684 1.744,1.34 2.806,1.97c1.061,0.631 1.641,0.962 1.741,0.995l0.149,0.05l0.199,0.1l0.1,0.03l0.099,0.019l0,0.199l-1.313,3.284c-0.883,2.189 -1.798,4.152 -2.747,5.89c-0.941,1.745 -2.043,3.529 -3.303,5.354c-1.26,1.824 -2.395,3.343 -3.403,4.557c-1.015,1.207 -1.943,2.202 -2.786,2.985c-0.849,0.776 -1.721,1.429 -2.617,1.96c-0.895,0.531 -1.791,0.929 -2.686,1.194c-0.896,0.265 -1.476,0.414 -1.742,0.448l-0.398,0.049l-0.099,0.03l-0.1,0.02l-0.796,-0.02c-0.53,-0.02 -1.326,-0.129 -2.388,-0.328c-1.061,-0.199 -2.67,-0.68 -4.825,-1.443c-2.156,-0.763 -3.848,-1.277 -5.075,-1.542c-1.227,-0.265 -2.487,-0.398 -3.781,-0.398c-1.293,0 -2.454,0.099 -3.483,0.298c-1.028,0.199 -2.52,0.647 -4.477,1.344c-1.957,0.696 -3.549,1.21 -4.776,1.542l-1.841,0.497l-0.398,0.05l-0.398,0.05l0,0.05l-1.99,0l0,-0.05l-0.348,-0.05l-0.348,-0.05l-0.199,-0.049c-0.133,-0.034 -0.365,-0.1 -0.697,-0.199c-0.332,-0.1 -0.912,-0.349 -1.741,-0.747c-0.829,-0.398 -1.725,-0.978 -2.687,-1.741c-0.962,-0.763 -1.857,-1.592 -2.686,-2.487c-0.829,-0.896 -1.934,-2.262 -3.314,-4.1c-1.373,-1.844 -2.547,-3.555 -3.522,-5.134c-0.982,-1.572 -1.93,-3.31 -2.846,-5.214c-0.908,-1.91 -1.744,-3.927 -2.507,-6.05c-0.763,-2.122 -1.41,-4.278 -1.94,-6.467c-0.531,-2.189 -0.939,-4.444 -1.224,-6.766l-0.418,-3.483l0,-4.477l0.05,0l0.298,-2.587c0.199,-1.725 0.498,-3.35 0.896,-4.876c0.398,-1.525 0.879,-2.935 1.442,-4.229c0.564,-1.293 1.211,-2.537 1.941,-3.731c0.729,-1.194 1.469,-2.229 2.219,-3.104c0.743,-0.883 1.529,-1.705 2.358,-2.468c0.829,-0.763 1.874,-1.542 3.134,-2.338c1.26,-0.796 2.537,-1.46 3.831,-1.99c1.293,-0.531 2.587,-0.929 3.88,-1.194c1.294,-0.266 2.703,-0.398 4.229,-0.398c1.526,0 3.085,0.199 4.677,0.597c1.592,0.398 3.598,1.028 6.019,1.89c2.422,0.863 3.848,1.344 4.279,1.443c0.431,0.1 0.945,0.133 1.542,0.1c0.597,-0.034 2.604,-0.631 6.02,-1.791c3.416,-1.161 5.788,-1.874 7.114,-2.14c1.327,-0.265 2.737,-0.398 4.229,-0.398c1.493,0 3.068,0.166 4.726,0.498c1.659,0.331 3.085,0.729 4.279,1.194c1.194,0.464 2.315,1.005 3.363,1.622c1.042,0.61 2.01,1.297 2.906,2.059c0.895,0.763 1.708,1.576 2.437,2.438c0.73,0.862 1.138,1.353 1.224,1.473c0.08,0.112 0.126,0.179 0.139,0.199Z" style="fill:#f6f7f0;stroke:#221e20;stroke-width:0.05px;"/><path d="M120.171,52.331l0,-0.02l0.696,0l0.02,0.548c0.02,0.364 -0.003,1.194 -0.069,2.487c-0.067,1.294 -0.233,2.488 -0.498,3.582c-0.265,1.095 -0.63,2.189 -1.094,3.284c-0.465,1.094 -1.062,2.222 -1.791,3.383c-0.73,1.161 -1.503,2.199 -2.319,3.114c-0.809,0.909 -1.705,1.751 -2.686,2.527c-0.975,0.783 -1.95,1.433 -2.926,1.951c-0.981,0.51 -2.069,0.915 -3.263,1.214c-1.194,0.298 -2.338,0.457 -3.433,0.477l-1.642,0.02l0.08,-2.288c0.046,-1.526 0.219,-2.886 0.517,-4.08c0.299,-1.194 0.703,-2.328 1.214,-3.403c0.518,-1.081 1.108,-2.103 1.771,-3.065c0.664,-0.961 1.377,-1.873 2.14,-2.736c0.762,-0.862 1.625,-1.658 2.587,-2.388c0.961,-0.73 1.99,-1.393 3.084,-1.99c1.095,-0.597 2.255,-1.111 3.483,-1.542c1.227,-0.431 2.222,-0.713 2.985,-0.846c0.762,-0.133 1.144,-0.209 1.144,-0.229Z" style="fill:#fff;stroke:#221e20;stroke-width:0.05px;"/></g></svg>