<?xml version="1.0" ?><!DOCTYPE svg  PUBLIC '-//W3C//DTD SVG 1.1//EN'  'http://www.w3.org/Graphics/SVG/1.1/DTD/svg11.dtd'><svg enable-background="new 0 0 66 66" id="Layer_1" version="1.1" viewBox="0 0 66 66" xml:space="preserve" xmlns="http://www.w3.org/2000/svg" xmlns:xlink="http://www.w3.org/1999/xlink"><g><g><rect fill="#E56353" height="64" transform="matrix(-1 -4.490642e-11 4.490642e-11 -1 66 66)" width="64" x="1" y="1"/><rect fill="#D15241" height="8" transform="matrix(-1 -4.490642e-11 4.490642e-11 -1 66 122)" width="64" x="1" y="57"/></g><g><path d="M49.3,37.1h1c0.1-0.6,0.2-1.2,0.2-1.8c0-4.8-3.7-8.7-8.2-8.7s-8.2,3.9-8.2,8.7    c0,4.8,3.7,8.8,8.2,8.8c3.1,0,5.9-1.9,7.2-4.7h-4.3c-0.8,0.7-1.8,1.2-2.9,1.2c-2,0-3.7-1.5-4.4-3.5h8.8H49.3z M38,33.6    c0.6-2,2.4-3.5,4.4-3.5c2,0,3.7,1.5,4.4,3.5H38z" fill="#FFFFFF" id="e_1_"/><rect fill="#FFFFFF" height="2.3" id="line_2_" width="8.2" x="37.7" y="23.1"/><path d="M28.2,32.5c1.5-1.1,2.5-2.8,2.5-4.8c0-3.2-2.6-5.8-5.8-5.8l0,0h-9.3v10.5v1.2v10.5h11.7    c3.2,0,5.8-2.6,5.8-5.8C33,35.4,30.9,33,28.2,32.5z M19,25.4h5.8c1.3,0,2.3,1,2.3,2.3s-1,2.3-2.3,2.3H19V25.4z M26,40.6h-7v-5.8h7    c1.3,0.3,2.3,1.5,2.3,2.9C28.3,39.1,27.3,40.3,26,40.6z" fill="#FFFFFF" id="B_2_"/></g></g></svg>