<?xml version="1.0" encoding="UTF-8" standalone="no"?><!DOCTYPE svg PUBLIC "-//W3C//DTD SVG 1.1//EN" "http://www.w3.org/Graphics/SVG/1.1/DTD/svg11.dtd"><svg width="100%" height="100%" viewBox="0 0 66 66" version="1.1" xmlns="http://www.w3.org/2000/svg" xmlns:xlink="http://www.w3.org/1999/xlink" xml:space="preserve" xmlns:serif="http://www.serif.com/" style="fill-rule:evenodd;clip-rule:evenodd;stroke-linejoin:round;stroke-miterlimit:1.41421;"><rect x="0" y="0" width="66" height="66" style="fill:#1377ff;"/><clipPath id="_clip1"><rect x="0" y="0" width="66" height="66"/></clipPath><g clip-path="url(#_clip1)"><g><path id="e_1_" d="M49.809,37.228l1.032,0c0.103,-0.619 0.206,-1.237 0.206,-1.856c0,-4.95 -3.816,-8.972 -8.456,-8.972c-4.641,0 -8.457,4.022 -8.457,8.972c0,4.95 3.816,9.075 8.457,9.075c3.196,0 6.084,-1.96 7.425,-4.847l-4.435,0c-0.825,0.722 -1.856,1.237 -2.99,1.237c-2.063,0 -3.816,-1.546 -4.538,-3.609l11.756,0Zm-11.653,-3.609c0.619,-2.063 2.475,-3.61 4.538,-3.61c2.062,0 3.815,1.547 4.537,3.61l-9.075,0Z" style="fill:#fff;fill-rule:nonzero;"/><rect id="line_2_" x="37.847" y="22.791" width="8.456" height="2.372" style="fill:#fff;"/><path id="B_2_" d="M28.05,32.484c1.547,-1.134 2.578,-2.887 2.578,-4.95c0,-3.3 -2.681,-5.981 -5.981,-5.981l-9.591,0l0,22.894l12.066,0c3.3,0 5.981,-2.681 5.981,-5.981c-0.103,-2.991 -2.269,-5.466 -5.053,-5.982Zm-9.487,-7.321l5.981,0c1.34,0 2.372,1.031 2.372,2.371c0,1.341 -1.032,2.372 -2.372,2.372l-5.981,0l0,-4.743Zm7.218,15.674l-7.218,0l0,-5.981l7.218,0c1.341,0.31 2.372,1.547 2.372,2.991c0,1.444 -1.031,2.681 -2.372,2.99Z" style="fill:#fff;fill-rule:nonzero;"/></g></g></svg>