<?xml version="1.0" encoding="UTF-8" standalone="no"?><!DOCTYPE svg PUBLIC "-//W3C//DTD SVG 1.1//EN" "http://www.w3.org/Graphics/SVG/1.1/DTD/svg11.dtd"><svg width="100%" height="100%" viewBox="0 0 183 412" version="1.1" xmlns="http://www.w3.org/2000/svg" xmlns:xlink="http://www.w3.org/1999/xlink" xml:space="preserve" xmlns:serif="http://www.serif.com/" style="fill-rule:evenodd;clip-rule:evenodd;stroke-linejoin:round;stroke-miterlimit:1.41421;"><path d="M71,0l-70,100l52,20l13,-15l-45,-5l50,-100Zm18,0l50,100l-45,5l13,15l52,-20l-70,-100Zm-9,50c-8.284,0 -15,11.193 -15,25c0,13.807 6.716,25 15,25c8.284,0 15,-11.193 15,-25c0,-13.807 -6.716,-25 -15,-25Zm-10,55l-13,15l18,60l-10,36l30,0l-10,-36l18,-60l-13,-15l-20,0Zm-10,113.56l-60,46.438l165,-25.812l-65,-20.625l-40,0l0,-0.001Zm63.312,29.188c-10.141,1.62 -20.29,3.201 -30.438,4.781l59.875,39.375l-73.656,19.375l103.34,-14.969l-59.125,-48.562l0.004,0Zm-39.438,6.188c-8.374,1.298 -16.75,2.615 -25.125,3.906l1.406,153.75l23.719,-157.66l0,0.004Z" style="fill:#fff;fill-rule:nonzero;"/></svg>