<?xml version="1.0" encoding="UTF-8" standalone="no"?><!DOCTYPE svg PUBLIC "-//W3C//DTD SVG 1.1//EN" "http://www.w3.org/Graphics/SVG/1.1/DTD/svg11.dtd"><svg width="100%" height="100%" viewBox="0 0 451 203" version="1.1" xmlns="http://www.w3.org/2000/svg" xmlns:xlink="http://www.w3.org/1999/xlink" xml:space="preserve" xmlns:serif="http://www.serif.com/" style="fill-rule:evenodd;clip-rule:evenodd;stroke-linejoin:round;stroke-miterlimit:1.41421;"><rect id="evernote" x="0" y="0" width="450.291" height="202.631" style="fill:#79c143;"/><text x="132.174px" y="122.334px" style="font-family:'FrankRuehl', sans-serif;font-size:50px;fill:#f6e9e1;">EVERNOTE</text><path d="M71.869,86.315l5.938,0c0.388,0 0.646,-0.258 0.646,-0.646c0,0 -0.129,-5.034 -0.129,-6.454c0,-1.162 0.258,-2.194 0.645,-2.969l0.258,-0.387l-0.129,0l-11.488,11.359l0,0.129c0.258,-0.129 0.516,-0.258 0.645,-0.258c0.904,-0.516 2.194,-0.774 3.614,-0.774Zm45.955,-1.162c-0.516,-2.453 -1.936,-3.744 -3.356,-4.26c-1.42,-0.516 -4.389,-1.033 -8.133,-1.549c-2.969,-0.387 -6.454,-0.387 -8.648,-0.258c-0.259,-1.678 -1.42,-3.356 -2.84,-3.873c-3.615,-1.42 -9.294,-1.161 -10.714,-0.645c-1.162,0.258 -2.453,1.033 -3.099,1.936c-0.516,0.646 -0.774,1.549 -0.774,2.711l0,6.454c0,1.291 -1.033,2.324 -2.324,2.324l-5.938,0c-1.29,0 -2.194,0.258 -2.968,0.516c-0.775,0.387 -1.291,0.775 -1.679,1.291c-0.774,1.033 -0.903,2.324 -0.903,3.744c0,0 0,1.032 0.258,3.227c0.258,1.678 1.936,13.037 3.614,16.523c0.646,1.291 1.033,1.936 2.324,2.452c2.84,1.162 9.423,2.582 12.392,2.969c3.098,0.388 4.905,1.162 6.067,-1.161c0,0 0.258,-0.646 0.517,-1.42c1.032,-2.969 1.161,-5.68 1.161,-7.616c0,-0.259 0.258,-0.259 0.258,0c0,1.419 -0.258,6.196 3.357,7.486c1.42,0.517 4.389,0.904 7.487,1.291c2.71,0.259 4.776,1.42 4.776,8.391c0,4.26 -0.904,4.905 -5.551,4.905c-3.743,0 -5.292,0.129 -5.292,-2.969c0,-2.452 2.452,-2.194 4.259,-2.194c0.775,0 0.259,-0.646 0.259,-2.066c0,-1.549 0.903,-2.323 0,-2.323c-6.196,-0.129 -9.811,0 -9.811,7.745c0,6.971 2.711,8.261 11.489,8.261c6.841,0 9.294,-0.258 12.134,-9.036c0.516,-1.678 1.936,-7.099 2.711,-16.006c0.774,-5.551 -0.259,-22.59 -1.033,-26.85Zm-12.005,18.717c-0.904,0 -1.678,0 -2.453,0.13c0.259,-1.679 0.904,-3.873 3.486,-3.744c2.84,0.129 3.227,2.711 3.227,4.518c-1.291,-0.516 -2.711,-0.774 -4.26,-0.904Z" style="fill:#f6e9e1;fill-rule:nonzero;"/></svg>