<?xml version="1.0" encoding="UTF-8" standalone="no"?><!DOCTYPE svg PUBLIC "-//W3C//DTD SVG 1.1//EN" "http://www.w3.org/Graphics/SVG/1.1/DTD/svg11.dtd"><svg width="100%" height="100%" viewBox="0 0 25 25" version="1.1" xmlns="http://www.w3.org/2000/svg" xmlns:xlink="http://www.w3.org/1999/xlink" xml:space="preserve" xmlns:serif="http://www.serif.com/" style="fill-rule:evenodd;clip-rule:evenodd;stroke-linejoin:round;stroke-miterlimit:1.41421;"><path id="Google--Icon" serif:id="Google+ Icon" d="M24.001,11.758l-3.231,0l0,3.303l-1.846,0l0,-3.303l-3.154,0l0,-1.932l3.154,0l0,-3.383l1.846,0l0,3.383l3.231,0l0,1.932Zm-13.134,-10.621c0.189,0.122 0.401,0.302 0.636,0.537c0.226,0.246 0.447,0.549 0.664,0.907c0.207,0.339 0.39,0.738 0.551,1.2c0.131,0.461 0.197,1 0.197,1.615c-0.018,1.127 -0.254,2.029 -0.71,2.706c-0.223,0.328 -0.46,0.63 -0.71,0.907c-0.277,0.277 -0.572,0.558 -0.885,0.845c-0.178,0.195 -0.344,0.416 -0.495,0.661c-0.179,0.257 -0.268,0.554 -0.268,0.893c0,0.327 0.091,0.599 0.274,0.814c0.156,0.206 0.307,0.385 0.454,0.539l1.017,0.876c0.633,0.544 1.187,1.143 1.663,1.799c0.449,0.667 0.683,1.538 0.702,2.614c0,1.528 -0.642,2.881 -1.925,4.059c-1.331,1.22 -3.251,1.85 -5.759,1.892c-2.101,-0.022 -3.669,-0.492 -4.705,-1.412c-1.045,-0.86 -1.568,-1.888 -1.568,-3.086c0,-0.582 0.17,-1.232 0.51,-1.949c0.33,-0.716 0.928,-1.345 1.792,-1.887c0.972,-0.584 1.992,-0.973 3.061,-1.166c1.058,-0.165 1.937,-0.257 2.637,-0.277c-0.216,-0.299 -0.409,-0.619 -0.578,-0.958c-0.198,-0.33 -0.296,-0.728 -0.296,-1.191c0,-0.278 0.037,-0.509 0.113,-0.695c0.065,-0.197 0.127,-0.376 0.183,-0.541c-0.341,0.041 -0.662,0.061 -0.964,0.061c-1.596,-0.02 -2.813,-0.548 -3.649,-1.584c-0.877,-0.963 -1.314,-2.085 -1.314,-3.367c0,-1.547 0.62,-2.951 1.861,-4.212c0.853,-0.737 1.739,-1.22 2.657,-1.445c0.91,-0.194 1.763,-0.292 2.559,-0.292l5.997,0l-1.853,1.137l-1.849,0Zm-3.897,14.008c-0.62,0.092 -1.255,0.241 -1.904,0.446c-0.153,0.061 -0.368,0.154 -0.645,0.277c-0.277,0.133 -0.558,0.323 -0.845,0.569c-0.277,0.256 -0.511,0.574 -0.702,0.954c-0.219,0.4 -0.329,0.881 -0.329,1.445c0,1.107 0.477,2.02 1.432,2.738c0.907,0.717 2.148,1.086 3.724,1.107c1.413,-0.021 2.492,-0.348 3.236,-0.984c0.726,-0.625 1.089,-1.43 1.089,-2.415c0,-0.8 -0.249,-1.497 -0.745,-2.091c-0.525,-0.564 -1.346,-1.256 -2.463,-2.076c-0.191,-0.021 -0.416,-0.031 -0.673,-0.031c-0.153,-0.021 -0.545,0 -1.175,0.061Zm2.496,-12.051c-0.284,-0.607 -0.657,-1.1 -1.12,-1.48c-0.473,-0.359 -1.016,-0.55 -1.63,-0.57c-0.813,0.02 -1.488,0.365 -2.027,1.032c-0.454,0.699 -0.672,1.48 -0.652,2.342c0,1.14 0.317,2.327 0.952,3.559c0.307,0.575 0.704,1.064 1.19,1.464c0.486,0.401 1.041,0.601 1.666,0.601c0.789,-0.031 1.447,-0.329 1.973,-0.894c0.254,-0.401 0.417,-0.811 0.49,-1.232c0.043,-0.421 0.065,-0.776 0.065,-1.064c0,-1.242 -0.302,-2.495 -0.907,-3.758Z" style="fill:#fff;"/></svg>