<?xml version="1.0" encoding="UTF-8" standalone="no"?><!DOCTYPE svg PUBLIC "-//W3C//DTD SVG 1.1//EN" "http://www.w3.org/Graphics/SVG/1.1/DTD/svg11.dtd"><svg width="100%" height="100%" viewBox="0 0 20 25" version="1.1" xmlns="http://www.w3.org/2000/svg" xmlns:xlink="http://www.w3.org/1999/xlink" xml:space="preserve" xmlns:serif="http://www.serif.com/" style="fill-rule:evenodd;clip-rule:evenodd;stroke-linejoin:round;stroke-miterlimit:1.41421;"><path id="Pinterest-Icon" serif:id="Pinterest Icon" d="M10.604,0c-7.049,0 -10.604,4.696 -10.604,8.612c0,2.371 0.966,4.481 3.039,5.267c0.339,0.13 0.644,0.005 0.742,-0.345c0.069,-0.242 0.231,-0.852 0.304,-1.106c0.099,-0.346 0.06,-0.467 -0.214,-0.768c-0.598,-0.656 -0.979,-1.503 -0.979,-2.705c0,-3.483 2.805,-6.602 7.305,-6.602c3.985,0 6.174,2.262 6.174,5.283c0,3.975 -1.893,7.33 -4.704,7.33c-1.553,0 -2.714,-1.192 -2.342,-2.655c0.446,-1.747 1.31,-3.632 1.31,-4.892c0,-1.129 -0.652,-2.07 -2.001,-2.07c-1.587,0 -2.862,1.525 -2.862,3.568c0,1.301 0.473,2.182 0.473,2.182c0,0 -1.623,6.393 -1.908,7.513c-0.567,2.229 -0.085,4.962 -0.045,5.238c0.024,0.164 0.25,0.203 0.353,0.079c0.146,-0.178 2.036,-2.345 2.679,-4.511c0.182,-0.614 1.043,-3.79 1.043,-3.79c0.516,0.914 2.023,1.719 3.625,1.719c4.77,0 8.006,-4.041 8.006,-9.449c0,-4.09 -3.728,-7.898 -9.394,-7.898Z" style="fill:#fff;fill-rule:nonzero;"/></svg>