<?xml version="1.0" encoding="UTF-8" standalone="no"?><!DOCTYPE svg PUBLIC "-//W3C//DTD SVG 1.1//EN" "http://www.w3.org/Graphics/SVG/1.1/DTD/svg11.dtd"><svg width="100%" height="100%" viewBox="0 0 203 203" version="1.1" xmlns="http://www.w3.org/2000/svg" xmlns:xlink="http://www.w3.org/1999/xlink" xml:space="preserve" xmlns:serif="http://www.serif.com/" style="fill-rule:evenodd;clip-rule:evenodd;stroke-linejoin:round;stroke-miterlimit:1.41421;"><rect id="twitter" x="-0.369" y="-0.369" width="203.369" height="203.369" style="fill:#00aef3;"/><path id="Twitter-Icon" serif:id="Twitter Icon" d="M137.699,82.162c0.035,0.826 0.047,1.655 0.047,2.492c0,25.464 -18.878,54.827 -53.403,54.827c-10.604,0 -20.464,-3.183 -28.773,-8.662c1.468,0.183 2.959,0.267 4.474,0.267c8.794,0 16.89,-3.074 23.317,-8.249c-8.215,-0.144 -15.15,-5.722 -17.541,-13.376c1.148,0.228 2.331,0.351 3.539,0.351c1.704,0 3.361,-0.241 4.947,-0.678c-8.592,-1.774 -15.066,-9.563 -15.066,-18.892c0,-0.1 0,-0.171 0,-0.242c2.532,1.431 5.432,2.306 8.509,2.404c-5.041,-3.463 -8.356,-9.355 -8.356,-16.037c0,-3.535 0.923,-6.839 2.545,-9.693c9.255,11.662 23.092,19.327 38.691,20.142c-0.32,-1.41 -0.485,-2.893 -0.485,-4.398c0,-10.642 8.403,-19.268 18.772,-19.268c5.396,0 10.273,2.344 13.694,6.086c4.284,-0.863 8.297,-2.465 11.93,-4.676c-1.409,4.493 -4.379,8.272 -8.262,10.653c3.8,-0.449 7.422,-1.494 10.783,-3.025c-2.521,3.863 -5.693,7.252 -9.362,9.974Z" style="fill:#f6f7f0;"/></svg>