<?xml version="1.0" encoding="UTF-8" standalone="no"?><!DOCTYPE svg PUBLIC "-//W3C//DTD SVG 1.1//EN" "http://www.w3.org/Graphics/SVG/1.1/DTD/svg11.dtd"><svg width="100%" height="100%" viewBox="0 0 451 203" version="1.1" xmlns="http://www.w3.org/2000/svg" xmlns:xlink="http://www.w3.org/1999/xlink" xml:space="preserve" xmlns:serif="http://www.serif.com/" style="fill-rule:evenodd;clip-rule:evenodd;stroke-linejoin:round;stroke-miterlimit:1.41421;"><rect id="waves" x="0" y="0" width="450.291" height="202.631" style="fill:#f7f7f0;"/><g><path d="M337.693,98.667c-56.514,0 -85.242,-5.409 -113.025,-10.638c-27.549,-5.185 -56.038,-10.55 -112.07,-10.55l0,-5.297c56.511,0 85.239,5.408 113.022,10.638c27.549,5.186 56.038,10.55 112.073,10.55l0,5.297Z" style="fill:#262626;fill-rule:nonzero;"/><path d="M337.693,114.557c-56.514,0 -85.242,-5.407 -113.025,-10.637c-27.549,-5.185 -56.038,-10.55 -112.07,-10.55l0,-5.297c56.511,0 85.239,5.408 113.022,10.638c27.549,5.186 56.038,10.55 112.073,10.55l0,5.296Z" style="fill:#262626;fill-rule:nonzero;"/><path d="M337.693,130.449c-56.514,0 -85.242,-5.408 -113.025,-10.638c-27.549,-5.186 -56.038,-10.55 -112.07,-10.55l0,-5.297c56.511,0 85.239,5.408 113.022,10.638c27.549,5.185 56.038,10.55 112.073,10.55l0,5.297Z" style="fill:#262626;fill-rule:nonzero;"/></g></svg>